<svg xmlns="http://www.w3.org/2000/svg" width="1410" height="500"><g transform="translate(50,50)"><line class="quarter-line" x1="0" x2="0" y1="0" y2="380"></line><line class="quarter-line" x1="161.50684931506848" x2="161.50684931506848" y1="0" y2="380"></line><line class="quarter-line" x1="324.8082191780822" x2="324.8082191780822" y1="0" y2="380"></line><line class="quarter-line" x1="489.9041095890411" x2="489.9041095890411" y1="0" y2="380"></line><line class="quarter-line" x1="655" x2="655" y1="0" y2="380"></line><line class="quarter-line" x1="816.5068493150685" x2="816.5068493150685" y1="0" y2="380"></line><line class="quarter-line" x1="979.8082191780823" x2="979.8082191780823" y1="0" y2="380"></line><line class="quarter-line" x1="1144.9041095890411" x2="1144.9041095890411" y1="0" y2="380"></line><line class="quarter-line" x1="1310" x2="1310" y1="0" y2="380"></line><text class="quarter-label" x="0" y="-10" text-anchor="middle">Q1 2022</text><text class="quarter-label" x="161.50684931506848" y="-10" text-anchor="middle">Q2 2022</text><text class="quarter-label" x="324.8082191780822" y="-10" text-anchor="middle">Q3 2022</text><text class="quarter-label" x="489.9041095890411" y="-10" text-anchor="middle">Q4 2022</text><text class="quarter-label" x="655" y="-10" text-anchor="middle">Q1 2023</text><text class="quarter-label" x="816.5068493150685" y="-10" text-anchor="middle">Q2 2023</text><text class="quarter-label" x="979.8082191780823" y="-10" text-anchor="middle">Q3 2023</text><text class="quarter-label" x="1144.9041095890411" y="-10" text-anchor="middle">Q4 2023</text><text class="quarter-label" x="1310" y="-10" text-anchor="middle">Q1 2024</text><path class="stream-layer" d="M0,246.155L26.918,244.888C53.836,243.622,107.671,241.09,161.806,248.1C215.941,255.109,270.374,271.66,325.107,273.431C379.84,275.203,434.872,262.196,489.904,254.201C544.936,246.207,599.968,243.225,654.402,243.42C708.836,243.616,762.671,246.989,816.806,248.423C870.941,249.857,925.374,249.352,980.107,248.166C1034.84,246.98,1089.872,245.112,1144.904,243.462C1199.936,241.811,1254.968,240.378,1282.484,239.662L1310,238.945L1310,279.962L1282.484,280.788C1254.968,281.614,1199.936,283.265,1144.904,285.944C1089.872,288.622,1034.84,292.329,980.107,294.487C925.374,296.644,870.941,297.253,816.806,294.125C762.671,290.998,708.836,284.134,654.402,284.193C599.968,284.252,544.936,291.234,489.904,308.356C434.872,325.477,379.84,352.739,325.107,349.232C270.374,345.725,215.941,311.45,161.806,294.763C107.671,278.076,53.836,278.977,26.918,279.428L0,279.878Z" style="fill: rgb(3, 71, 55); opacity: 0.8;"></path><path class="stream-layer" d="M0,188.338L26.918,187.929C53.836,187.52,107.671,186.702,161.806,183.13C215.941,179.558,270.374,173.231,325.107,171.174C379.84,169.118,434.872,171.331,489.904,173.58C544.936,175.83,599.968,178.115,654.402,178.752C708.836,179.389,762.671,178.378,816.806,177.573C870.941,176.768,925.374,176.17,980.107,176.318C1034.84,176.467,1089.872,177.363,1144.904,178.591C1199.936,179.818,1254.968,181.377,1282.484,182.157L1310,182.936L1310,238.945L1282.484,239.662C1254.968,240.378,1199.936,241.811,1144.904,243.462C1089.872,245.112,1034.84,246.98,980.107,248.166C925.374,249.352,870.941,249.857,816.806,248.423C762.671,246.989,708.836,243.616,654.402,243.42C599.968,243.225,544.936,246.207,489.904,254.201C434.872,262.196,379.84,275.203,325.107,273.431C270.374,271.66,215.941,255.109,161.806,248.1C107.671,241.09,53.836,243.622,26.918,244.888L0,246.155Z" style="fill: rgb(13, 105, 134); opacity: 0.8;"></path><path class="stream-layer" d="M0,140.495L26.918,141.374C53.836,142.254,107.671,144.012,161.806,138.284C215.941,132.556,270.374,119.342,325.107,118.729C379.84,118.117,434.872,130.106,489.904,136.013C544.936,141.919,599.968,141.742,654.402,140.114C708.836,138.486,762.671,135.407,816.806,134.203C870.941,132.998,925.374,133.667,980.107,135.494C1034.84,137.32,1089.872,140.304,1144.904,141.361C1199.936,142.417,1254.968,141.545,1282.484,141.109L1310,140.673L1310,182.936L1282.484,182.157C1254.968,181.377,1199.936,179.818,1144.904,178.591C1089.872,177.363,1034.84,176.467,980.107,176.318C925.374,176.17,870.941,176.768,816.806,177.573C762.671,178.378,708.836,179.389,654.402,178.752C599.968,178.115,544.936,175.83,489.904,173.58C434.872,171.331,379.84,169.118,325.107,171.174C270.374,173.231,215.941,179.558,161.806,183.13C107.671,186.702,53.836,187.52,26.918,187.929L0,188.338Z" style="fill: rgb(33, 158, 188); opacity: 0.8;"></path><path class="stream-layer" d="M0,129.586L26.918,130.149C53.836,130.711,107.671,131.836,161.806,123.776C215.941,115.715,270.374,98.469,325.107,96.434C379.84,94.398,434.872,107.572,489.904,115.244C544.936,122.917,599.968,125.088,654.402,124.208C708.836,123.328,762.671,119.397,816.806,117.798C870.941,116.198,925.374,116.93,980.107,117.458C1034.84,117.986,1089.872,118.31,1144.904,119.423C1199.936,120.537,1254.968,122.439,1282.484,123.39L1310,124.341L1310,140.673L1282.484,141.109C1254.968,141.545,1199.936,142.417,1144.904,141.361C1089.872,140.304,1034.84,137.32,980.107,135.494C925.374,133.667,870.941,132.998,816.806,134.203C762.671,135.407,708.836,138.486,654.402,140.114C599.968,141.742,544.936,141.919,489.904,136.013C434.872,130.106,379.84,118.117,325.107,118.729C270.374,119.342,215.941,132.556,161.806,138.284C107.671,144.012,53.836,142.254,26.918,141.374L0,140.495Z" style="fill: rgb(255, 183, 3); opacity: 0.8;"></path><path class="stream-layer" d="M0,79.593L26.918,82.077C53.836,84.562,107.671,89.531,161.806,76.265C215.941,63,270.374,31.5,325.107,27.791C379.84,24.083,434.872,48.166,489.904,63.121C544.936,78.076,599.968,83.905,654.402,84.375C708.836,84.846,762.671,79.96,816.806,78.646C870.941,77.332,925.374,79.59,980.107,81.864C1034.84,84.137,1089.872,86.425,1144.904,87.668C1199.936,88.912,1254.968,89.11,1282.484,89.209L1310,89.308L1310,124.341L1282.484,123.39C1254.968,122.439,1199.936,120.537,1144.904,119.423C1089.872,118.31,1034.84,117.986,980.107,117.458C925.374,116.93,870.941,116.198,816.806,117.798C762.671,119.397,708.836,123.328,654.402,124.208C599.968,125.088,544.936,122.917,489.904,115.244C434.872,107.572,379.84,94.398,325.107,96.434C270.374,98.469,215.941,115.715,161.806,123.776C107.671,131.836,53.836,130.711,26.918,130.149L0,129.586Z" style="fill: rgb(251, 133, 0); opacity: 0.8;"></path><g transform="translate(0,380)" fill="none" font-size="10" font-family="sans-serif" text-anchor="middle"><path class="domain" stroke="currentColor" d="M0,6V0H1310V6"></path><g class="tick" opacity="1" transform="translate(0,0)"><line stroke="currentColor" y2="6"></line><text fill="currentColor" y="9" dy="0.71em">Jan 2022</text></g><g class="tick" opacity="1" transform="translate(161.43207762557077,0)"><line stroke="currentColor" y2="6"></line><text fill="currentColor" y="9" dy="0.71em">Apr 2022</text></g><g class="tick" opacity="1" transform="translate(324.7334474885845,0)"><line stroke="currentColor" y2="6"></line><text fill="currentColor" y="9" dy="0.71em">Jul 2022</text></g><g class="tick" opacity="1" transform="translate(489.8293378995434,0)"><line stroke="currentColor" y2="6"></line><text fill="currentColor" y="9" dy="0.71em">Oct 2022</text></g><g class="tick" opacity="1" transform="translate(655,0)"><line stroke="currentColor" y2="6"></line><text fill="currentColor" y="9" dy="0.71em">Jan 2023</text></g><g class="tick" opacity="1" transform="translate(816.4320776255707,0)"><line stroke="currentColor" y2="6"></line><text fill="currentColor" y="9" dy="0.71em">Apr 2023</text></g><g class="tick" opacity="1" transform="translate(979.7334474885845,0)"><line stroke="currentColor" y2="6"></line><text fill="currentColor" y="9" dy="0.71em">Jul 2023</text></g><g class="tick" opacity="1" transform="translate(1144.8293378995434,0)"><line stroke="currentColor" y2="6"></line><text fill="currentColor" y="9" dy="0.71em">Oct 2023</text></g><g class="tick" opacity="1" transform="translate(1310,0)"><line stroke="currentColor" y2="6"></line><text fill="currentColor" y="9" dy="0.71em">Jan 2024</text></g></g></g><g transform="translate(50,470)"><g transform="translate(0, 0)"><rect width="15" height="15" style="fill: rgb(3, 71, 55);"></rect><text x="20" y="12" style="font-size: 12px;">Infrastructure</text></g><g transform="translate(262, 0)"><rect width="15" height="15" style="fill: rgb(13, 105, 134);"></rect><text x="20" y="12" style="font-size: 12px;">Communication</text></g><g transform="translate(524, 0)"><rect width="15" height="15" style="fill: rgb(33, 158, 188);"></rect><text x="20" y="12" style="font-size: 12px;">Analytics</text></g><g transform="translate(786, 0)"><rect width="15" height="15" style="fill: rgb(255, 183, 3);"></rect><text x="20" y="12" style="font-size: 12px;">Security</text></g><g transform="translate(1048, 0)"><rect width="15" height="15" style="fill: rgb(251, 133, 0);"></rect><text x="20" y="12" style="font-size: 12px;">Productivity</text></g></g></svg>