<svg xmlns="http://www.w3.org/2000/svg" width="823" height="700"><text x="431.5" y="30" text-anchor="middle" style="font-size: 16px; font-weight: bold; fill: rgb(3, 71, 55);">Average Contract Values by Region and Category</text><g transform="translate(160,50)"><g transform="translate(0,14.39024390243901)"><rect class="bar namerica" x="0" y="0" width="107.67410709942237" height="13.43089430894309"></rect><rect class="bar europe" x="0" y="18.43089430894309" width="543" height="13.43089430894309"></rect><text x="112.67410709942237" y="6.715447154471545" dy="0.35em" style="font-size: 11px;">$82M</text><text x="548" y="24.17560975609756" dy="0.35em" style="font-size: 11px;">$410M</text></g><g transform="translate(0,62.35772357723576)"><rect class="bar namerica" x="0" y="0" width="22.83956207927045" height="13.43089430894309"></rect><rect class="bar europe" x="0" y="18.43089430894309" width="530.053097541256" height="13.43089430894309"></rect><text x="27.83956207927045" y="6.715447154471545" dy="0.35em" style="font-size: 11px;">$17M</text><text x="535.053097541256" y="24.17560975609756" dy="0.35em" style="font-size: 11px;">$400M</text></g><g transform="translate(0,110.32520325203251)"><rect class="bar namerica" x="0" y="0" width="49.360231211850234" height="13.43089430894309"></rect><rect class="bar europe" x="0" y="18.43089430894309" width="285.0492537583437" height="13.43089430894309"></rect><text x="54.360231211850234" y="6.715447154471545" dy="0.35em" style="font-size: 11px;">$38M</text><text x="290.0492537583437" y="24.17560975609756" dy="0.35em" style="font-size: 11px;">$220M</text></g><g transform="translate(0,158.29268292682926)"><rect class="bar namerica" x="0" y="0" width="65.57482963609168" height="13.43089430894309"></rect><rect class="bar europe" x="0" y="18.43089430894309" width="251.31434865266445" height="13.43089430894309"></rect><text x="70.57482963609168" y="6.715447154471545" dy="0.35em" style="font-size: 11px;">$50M</text><text x="256.3143486526644" y="24.17560975609756" dy="0.35em" style="font-size: 11px;">$190M</text></g><g transform="translate(0,206.260162601626)"><rect class="bar namerica" x="0" y="0" width="71.23904218709141" height="13.43089430894309"></rect><rect class="bar europe" x="0" y="18.43089430894309" width="244.24054827655686" height="13.43089430894309"></rect><text x="76.23904218709141" y="6.715447154471545" dy="0.35em" style="font-size: 11px;">$54M</text><text x="249.24054827655686" y="24.17560975609756" dy="0.35em" style="font-size: 11px;">$190M</text></g><g transform="translate(0,254.22764227642276)"><rect class="bar namerica" x="0" y="0" width="482.13116830880233" height="13.43089430894309"></rect><rect class="bar europe" x="0" y="18.43089430894309" width="213.24693047957547" height="13.43089430894309"></rect><text x="487.13116830880233" y="6.715447154471545" dy="0.35em" style="font-size: 11px;">$370M</text><text x="218.24693047957547" y="24.17560975609756" dy="0.35em" style="font-size: 11px;">$160M</text></g><g transform="translate(0,302.1951219512195)"><rect class="bar namerica" x="0" y="0" width="37.248599357372946" height="13.43089430894309"></rect><rect class="bar europe" x="0" y="18.43089430894309" width="134.00153894065764" height="13.43089430894309"></rect><text x="42.248599357372946" y="6.715447154471545" dy="0.35em" style="font-size: 11px;">$28M</text><text x="139.00153894065764" y="24.17560975609756" dy="0.35em" style="font-size: 11px;">$100M</text></g><g transform="translate(0,350.1626016260162)"><rect class="bar namerica" x="0" y="0" width="78.10611010510699" height="13.43089430894309"></rect><rect class="bar europe" x="0" y="18.43089430894309" width="91.60548859449742" height="13.43089430894309"></rect><text x="83.10611010510699" y="6.715447154471545" dy="0.35em" style="font-size: 11px;">$59M</text><text x="96.60548859449742" y="24.17560975609756" dy="0.35em" style="font-size: 11px;">$70M</text></g><g transform="translate(0,398.130081300813)"><rect class="bar namerica" x="0" y="0" width="7.085257942038649" height="13.43089430894309"></rect><rect class="bar europe" x="0" y="18.43089430894309" width="68.46444824494507" height="13.43089430894309"></rect><text x="12.085257942038648" y="6.715447154471545" dy="0.35em" style="font-size: 11px;">$5.4M</text><text x="73.46444824494507" y="24.17560975609756" dy="0.35em" style="font-size: 11px;">$52M</text></g><g transform="translate(0,446.0975609756098)"><rect class="bar namerica" x="0" y="0" width="30.63211038872929" height="13.43089430894309"></rect><rect class="bar europe" x="0" y="18.43089430894309" width="59.344191628753165" height="13.43089430894309"></rect><text x="35.63211038872929" y="6.715447154471545" dy="0.35em" style="font-size: 11px;">$23M</text><text x="64.34419162875317" y="24.17560975609756" dy="0.35em" style="font-size: 11px;">$45M</text></g><g transform="translate(0,494.0650406504065)"><rect class="bar namerica" x="0" y="0" width="6.89632692046082" height="13.43089430894309"></rect><rect class="bar europe" x="0" y="18.43089430894309" width="53.047718896582154" height="13.43089430894309"></rect><text x="11.896326920460819" y="6.715447154471545" dy="0.35em" style="font-size: 11px;">$5.3M</text><text x="58.047718896582154" y="24.17560975609756" dy="0.35em" style="font-size: 11px;">$40M</text></g><g transform="translate(0,542.0325203252032)"><rect class="bar namerica" x="0" y="0" width="15.78731405819029" height="13.43089430894309"></rect><rect class="bar europe" x="0" y="18.43089430894309" width="39.25498496954595" height="13.43089430894309"></rect><text x="20.78731405819029" y="6.715447154471545" dy="0.35em" style="font-size: 11px;">$12M</text><text x="44.25498496954595" y="24.17560975609756" dy="0.35em" style="font-size: 11px;">$30M</text></g><g class="axis" fill="none" font-size="10" font-family="sans-serif" text-anchor="end"><path class="domain" stroke="currentColor" d="M-6,0H0V590H-6"></path><g class="tick" opacity="1" transform="translate(0,31.178861788617873)"><line stroke="currentColor" x2="-6"></line><text fill="currentColor" x="-9" dy="0.32em">Information systems</text></g><g class="tick" opacity="1" transform="translate(0,79.14634146341461)"><line stroke="currentColor" x2="-6"></line><text fill="currentColor" x="-9" dy="0.32em">Servers</text></g><g class="tick" opacity="1" transform="translate(0,127.11382113821136)"><line stroke="currentColor" x2="-6"></line><text fill="currentColor" x="-9" dy="0.32em">Medical</text></g><g class="tick" opacity="1" transform="translate(0,175.0813008130081)"><line stroke="currentColor" x2="-6"></line><text fill="currentColor" x="-9" dy="0.32em">Networking</text></g><g class="tick" opacity="1" transform="translate(0,223.04878048780486)"><line stroke="currentColor" x2="-6"></line><text fill="currentColor" x="-9" dy="0.32em">Financial</text></g><g class="tick" opacity="1" transform="translate(0,271.0162601626016)"><line stroke="currentColor" x2="-6"></line><text fill="currentColor" x="-9" dy="0.32em">Time accounting</text></g><g class="tick" opacity="1" transform="translate(0,318.9837398373984)"><line stroke="currentColor" x2="-6"></line><text fill="currentColor" x="-9" dy="0.32em">Security</text></g><g class="tick" opacity="1" transform="translate(0,366.9512195121951)"><line stroke="currentColor" x2="-6"></line><text fill="currentColor" x="-9" dy="0.32em">Document creation</text></g><g class="tick" opacity="1" transform="translate(0,414.9186991869919)"><line stroke="currentColor" x2="-6"></line><text fill="currentColor" x="-9" dy="0.32em">Imaging</text></g><g class="tick" opacity="1" transform="translate(0,462.88617886178866)"><line stroke="currentColor" x2="-6"></line><text fill="currentColor" x="-9" dy="0.32em">Database systems</text></g><g class="tick" opacity="1" transform="translate(0,510.8536585365854)"><line stroke="currentColor" x2="-6"></line><text fill="currentColor" x="-9" dy="0.32em">Communication</text></g><g class="tick" opacity="1" transform="translate(0,558.821138211382)"><line stroke="currentColor" x2="-6"></line><text fill="currentColor" x="-9" dy="0.32em">Educational</text></g></g><g class="axis" transform="translate(0,590)" fill="none" font-size="10" font-family="sans-serif" text-anchor="middle"><path class="domain" stroke="currentColor" d="M0,6V0H543V6"></path><g class="tick" opacity="1" transform="translate(0,0)"><line stroke="currentColor" y2="6"></line><text fill="currentColor" y="9" dy="0.71em">$0.0</text></g><g class="tick" opacity="1" transform="translate(65.64435619951682,0)"><line stroke="currentColor" y2="6"></line><text fill="currentColor" y="9" dy="0.71em">$50M</text></g><g class="tick" opacity="1" transform="translate(131.28871239903364,0)"><line stroke="currentColor" y2="6"></line><text fill="currentColor" y="9" dy="0.71em">$100M</text></g><g class="tick" opacity="1" transform="translate(196.93306859855048,0)"><line stroke="currentColor" y2="6"></line><text fill="currentColor" y="9" dy="0.71em">$150M</text></g><g class="tick" opacity="1" transform="translate(262.5774247980673,0)"><line stroke="currentColor" y2="6"></line><text fill="currentColor" y="9" dy="0.71em">$200M</text></g><g class="tick" opacity="1" transform="translate(328.2217809975841,0)"><line stroke="currentColor" y2="6"></line><text fill="currentColor" y="9" dy="0.71em">$250M</text></g><g class="tick" opacity="1" transform="translate(393.86613719710095,0)"><line stroke="currentColor" y2="6"></line><text fill="currentColor" y="9" dy="0.71em">$300M</text></g><g class="tick" opacity="1" transform="translate(459.5104933966178,0)"><line stroke="currentColor" y2="6"></line><text fill="currentColor" y="9" dy="0.71em">$350M</text></g><g class="tick" opacity="1" transform="translate(525.1548495961346,0)"><line stroke="currentColor" y2="6"></line><text fill="currentColor" y="9" dy="0.71em">$400M</text></g></g><g transform="translate(0,630)"><rect width="15" height="15" fill="#034737"></rect><text x="25" y="12">Europe</text><rect width="15" height="15" fill="#a9ff9b" transform="translate(100,0)"></rect><text x="125" y="12">North America</text></g></g></svg>