<svg xmlns="http://www.w3.org/2000/svg" width="823" height="493.79999999999995" viewBox="0 0 823 493.79999999999995" preserveAspectRatio="xMidYMid meet"><g transform="translate(200,20)"><g class="grid" fill="none" font-size="10" font-family="sans-serif" text-anchor="middle"><path class="domain" stroke="currentColor" d="M0,373.79999999999995V0H563V373.79999999999995"></path><g class="tick" opacity="1" transform="translate(0,0)"><line stroke="currentColor" y2="373.79999999999995"></line><text fill="currentColor" y="-3" dy="0em"></text></g><g class="tick" opacity="1" transform="translate(54.44874274661508,0)"><line stroke="currentColor" y2="373.79999999999995"></line><text fill="currentColor" y="-3" dy="0em"></text></g><g class="tick" opacity="1" transform="translate(108.89748549323016,0)"><line stroke="currentColor" y2="373.79999999999995"></line><text fill="currentColor" y="-3" dy="0em"></text></g><g class="tick" opacity="1" transform="translate(163.34622823984526,0)"><line stroke="currentColor" y2="373.79999999999995"></line><text fill="currentColor" y="-3" dy="0em"></text></g><g class="tick" opacity="1" transform="translate(217.79497098646033,0)"><line stroke="currentColor" y2="373.79999999999995"></line><text fill="currentColor" y="-3" dy="0em"></text></g><g class="tick" opacity="1" transform="translate(272.2437137330754,0)"><line stroke="currentColor" y2="373.79999999999995"></line><text fill="currentColor" y="-3" dy="0em"></text></g><g class="tick" opacity="1" transform="translate(326.6924564796905,0)"><line stroke="currentColor" y2="373.79999999999995"></line><text fill="currentColor" y="-3" dy="0em"></text></g><g class="tick" opacity="1" transform="translate(381.1411992263056,0)"><line stroke="currentColor" y2="373.79999999999995"></line><text fill="currentColor" y="-3" dy="0em"></text></g><g class="tick" opacity="1" transform="translate(435.58994197292066,0)"><line stroke="currentColor" y2="373.79999999999995"></line><text fill="currentColor" y="-3" dy="0em"></text></g><g class="tick" opacity="1" transform="translate(490.0386847195358,0)"><line stroke="currentColor" y2="373.79999999999995"></line><text fill="currentColor" y="-3" dy="0em"></text></g><g class="tick" opacity="1" transform="translate(544.4874274661508,0)"><line stroke="currentColor" y2="373.79999999999995"></line><text fill="currentColor" y="-3" dy="0em"></text></g></g><g class="bar-group" transform="translate(0,12.058064516129008)" style="opacity: 1;"><rect class="bar" x="0" y="0" width="511.8181818181818" height="28.13548387096774" style="fill: rgb(3, 71, 55);"></rect><text class="value-label" x="516.8181818181818" y="14.06774193548387" dy="0.35em">47 months</text><rect class="hover-area" x="0" y="-2.813548387096774" width="563" height="33.762580645161286"></rect></g><g class="bar-group" transform="translate(0,52.251612903225784)" style="opacity: 1;"><rect class="bar" x="0" y="0" width="370.25145067698253" height="28.13548387096774" style="fill: rgb(3, 71, 55);"></rect><text class="value-label" x="375.25145067698253" y="14.06774193548387" dy="0.35em">34 months</text><rect class="hover-area" x="0" y="-2.813548387096774" width="563" height="33.762580645161286"></rect></g><g class="bar-group" transform="translate(0,92.44516129032256)" style="opacity: 1;"><rect class="bar" x="0" y="0" width="348.4719535783365" height="28.13548387096774" style="fill: rgb(3, 71, 55);"></rect><text class="value-label" x="353.4719535783365" y="14.06774193548387" dy="0.35em">32 months</text><rect class="hover-area" x="0" y="-2.813548387096774" width="563" height="33.762580645161286"></rect></g><g class="bar-group" transform="translate(0,132.63870967741934)" style="opacity: 1;"><rect class="bar" x="0" y="0" width="304.91295938104446" height="28.13548387096774" style="fill: rgb(3, 71, 55);"></rect><text class="value-label" x="309.91295938104446" y="14.06774193548387" dy="0.35em">28 months</text><rect class="hover-area" x="0" y="-2.813548387096774" width="563" height="33.762580645161286"></rect></g><g class="bar-group" transform="translate(0,172.8322580645161)" style="opacity: 1;"><rect class="bar" x="0" y="0" width="294.0232108317215" height="28.13548387096774" style="fill: rgb(3, 71, 55);"></rect><text class="value-label" x="299.0232108317215" y="14.06774193548387" dy="0.35em">27 months</text><rect class="hover-area" x="0" y="-2.813548387096774" width="563" height="33.762580645161286"></rect></g><g class="bar-group" transform="translate(0,213.02580645161288)" style="opacity: 1;"><rect class="bar" x="0" y="0" width="294.0232108317215" height="28.13548387096774" style="fill: rgb(3, 71, 55);"></rect><text class="value-label" x="299.0232108317215" y="14.06774193548387" dy="0.35em">27 months</text><rect class="hover-area" x="0" y="-2.813548387096774" width="563" height="33.762580645161286"></rect></g><g class="bar-group" transform="translate(0,253.21935483870968)" style="opacity: 1;"><rect class="bar" x="0" y="0" width="283.13346228239845" height="28.13548387096774" style="fill: rgb(3, 71, 55);"></rect><text class="value-label" x="288.13346228239845" y="14.06774193548387" dy="0.35em">26 months</text><rect class="hover-area" x="0" y="-2.813548387096774" width="563" height="33.762580645161286"></rect></g><g class="bar-group" transform="translate(0,293.4129032258064)" style="opacity: 1;"><rect class="bar" x="0" y="0" width="261.3539651837524" height="28.13548387096774" style="fill: rgb(3, 71, 55);"></rect><text class="value-label" x="266.3539651837524" y="14.06774193548387" dy="0.35em">24 months</text><rect class="hover-area" x="0" y="-2.813548387096774" width="563" height="33.762580645161286"></rect></g><g class="bar-group" transform="translate(0,333.60645161290324)" style="opacity: 1;"><rect class="bar" x="0" y="0" width="217.79497098646033" height="28.13548387096774" style="fill: rgb(3, 71, 55);"></rect><text class="value-label" x="222.79497098646033" y="14.06774193548387" dy="0.35em">20 months</text><rect class="hover-area" x="0" y="-2.813548387096774" width="563" height="33.762580645161286"></rect></g><g class="axis" fill="none" font-size="10" font-family="sans-serif" text-anchor="end"><g class="tick" opacity="1" transform="translate(0,26.125806451612878)"><line stroke="currentColor" x2="-6"></line><text fill="currentColor" x="-9" dy="0.32em">Information Systems</text></g><g class="tick" opacity="1" transform="translate(0,66.31935483870966)"><line stroke="currentColor" x2="-6"></line><text fill="currentColor" x="-9" dy="0.32em">Time accounting software</text></g><g class="tick" opacity="1" transform="translate(0,106.51290322580643)"><line stroke="currentColor" x2="-6"></line><text fill="currentColor" x="-9" dy="0.32em">Document creation software</text></g><g class="tick" opacity="1" transform="translate(0,146.7064516129032)"><line stroke="currentColor" x2="-6"></line><text fill="currentColor" x="-9" dy="0.32em">Communication software</text></g><g class="tick" opacity="1" transform="translate(0,186.89999999999998)"><line stroke="currentColor" x2="-6"></line><text fill="currentColor" x="-9" dy="0.32em">Medical software</text></g><g class="tick" opacity="1" transform="translate(0,227.09354838709675)"><line stroke="currentColor" x2="-6"></line><text fill="currentColor" x="-9" dy="0.32em">Servers</text></g><g class="tick" opacity="1" transform="translate(0,267.28709677419357)"><line stroke="currentColor" x2="-6"></line><text fill="currentColor" x="-9" dy="0.32em">Security software</text></g><g class="tick" opacity="1" transform="translate(0,307.4806451612903)"><line stroke="currentColor" x2="-6"></line><text fill="currentColor" x="-9" dy="0.32em">Networking software</text></g><g class="tick" opacity="1" transform="translate(0,347.6741935483871)"><line stroke="currentColor" x2="-6"></line><text fill="currentColor" x="-9" dy="0.32em">Drawing and imaging</text></g></g><g class="axis" transform="translate(0,373.79999999999995)" fill="none" font-size="10" font-family="sans-serif" text-anchor="middle"><path class="domain" stroke="currentColor" d="M0,6V0H563V6"></path><g class="tick" opacity="1" transform="translate(0,0)"><line stroke="currentColor" y2="6"></line><text fill="currentColor" y="9" dy="0.71em">0 months</text></g><g class="tick" opacity="1" transform="translate(108.89748549323016,0)"><line stroke="currentColor" y2="6"></line><text fill="currentColor" y="9" dy="0.71em">10 months</text></g><g class="tick" opacity="1" transform="translate(217.79497098646033,0)"><line stroke="currentColor" y2="6"></line><text fill="currentColor" y="9" dy="0.71em">20 months</text></g><g class="tick" opacity="1" transform="translate(326.6924564796905,0)"><line stroke="currentColor" y2="6"></line><text fill="currentColor" y="9" dy="0.71em">30 months</text></g><g class="tick" opacity="1" transform="translate(435.58994197292066,0)"><line stroke="currentColor" y2="6"></line><text fill="currentColor" y="9" dy="0.71em">40 months</text></g><g class="tick" opacity="1" transform="translate(544.4874274661508,0)"><line stroke="currentColor" y2="6"></line><text fill="currentColor" y="9" dy="0.71em">50 months</text></g></g></g></svg>