<svg xmlns="http://www.w3.org/2000/svg" width="823" height="650"><g transform="translate(150,50)"><g fill="none" font-size="10" font-family="sans-serif" text-anchor="end"><path class="domain" stroke="currentColor" d="M-6,0H0V500H-6"></path><g class="tick" opacity="1" transform="translate(0,33.653846153846175)"><line stroke="currentColor" x2="-6"></line><text fill="currentColor" x="-9" dy="0.32em" class="category-label" style="text-anchor: end;">Information</text></g><g class="tick" opacity="1" transform="translate(0,81.73076923076924)"><line stroke="currentColor" x2="-6"></line><text fill="currentColor" x="-9" dy="0.32em" class="category-label" style="text-anchor: end;">Document creation</text></g><g class="tick" opacity="1" transform="translate(0,129.80769230769232)"><line stroke="currentColor" x2="-6"></line><text fill="currentColor" x="-9" dy="0.32em" class="category-label" style="text-anchor: end;">Medical</text></g><g class="tick" opacity="1" transform="translate(0,177.88461538461542)"><line stroke="currentColor" x2="-6"></line><text fill="currentColor" x="-9" dy="0.32em" class="category-label" style="text-anchor: end;">Servers</text></g><g class="tick" opacity="1" transform="translate(0,225.96153846153848)"><line stroke="currentColor" x2="-6"></line><text fill="currentColor" x="-9" dy="0.32em" class="category-label" style="text-anchor: end;">Networking</text></g><g class="tick" opacity="1" transform="translate(0,274.03846153846155)"><line stroke="currentColor" x2="-6"></line><text fill="currentColor" x="-9" dy="0.32em" class="category-label" style="text-anchor: end;">Time accounting</text></g><g class="tick" opacity="1" transform="translate(0,322.11538461538464)"><line stroke="currentColor" x2="-6"></line><text fill="currentColor" x="-9" dy="0.32em" class="category-label" style="text-anchor: end;">Imaging</text></g><g class="tick" opacity="1" transform="translate(0,370.1923076923076)"><line stroke="currentColor" x2="-6"></line><text fill="currentColor" x="-9" dy="0.32em" class="category-label" style="text-anchor: end;">Communication</text></g><g class="tick" opacity="1" transform="translate(0,418.2692307692307)"><line stroke="currentColor" x2="-6"></line><text fill="currentColor" x="-9" dy="0.32em" class="category-label" style="text-anchor: end;">Security</text></g><g class="tick" opacity="1" transform="translate(0,466.3461538461538)"><line stroke="currentColor" x2="-6"></line><text fill="currentColor" x="-9" dy="0.32em" class="category-label" style="text-anchor: end;">Virus protection</text></g></g><g class="axis" transform="translate(0,500)" fill="none" font-size="10" font-family="sans-serif" text-anchor="middle"><path class="domain" stroke="currentColor" d="M0,6V0H623V6"></path><g class="tick" opacity="1" transform="translate(0,0)"><line stroke="currentColor" y2="6"></line><text fill="currentColor" y="9" dy="0.71em" class="axis-label">-100%</text></g><g class="tick" opacity="1" transform="translate(62.300000000000004,0)"><line stroke="currentColor" y2="6"></line><text fill="currentColor" y="9" dy="0.71em" class="axis-label">-80%</text></g><g class="tick" opacity="1" transform="translate(124.60000000000001,0)"><line stroke="currentColor" y2="6"></line><text fill="currentColor" y="9" dy="0.71em" class="axis-label">-60%</text></g><g class="tick" opacity="1" transform="translate(186.9,0)"><line stroke="currentColor" y2="6"></line><text fill="currentColor" y="9" dy="0.71em" class="axis-label">-40%</text></g><g class="tick" opacity="1" transform="translate(249.20000000000002,0)"><line stroke="currentColor" y2="6"></line><text fill="currentColor" y="9" dy="0.71em" class="axis-label">-20%</text></g><g class="tick" opacity="1" transform="translate(311.5,0)"><line stroke="currentColor" y2="6"></line><text fill="currentColor" y="9" dy="0.71em" class="axis-label">0%</text></g><g class="tick" opacity="1" transform="translate(373.8,0)"><line stroke="currentColor" y2="6"></line><text fill="currentColor" y="9" dy="0.71em" class="axis-label">20%</text></g><g class="tick" opacity="1" transform="translate(436.09999999999997,0)"><line stroke="currentColor" y2="6"></line><text fill="currentColor" y="9" dy="0.71em" class="axis-label">40%</text></g><g class="tick" opacity="1" transform="translate(498.40000000000003,0)"><line stroke="currentColor" y2="6"></line><text fill="currentColor" y="9" dy="0.71em" class="axis-label">60%</text></g><g class="tick" opacity="1" transform="translate(560.7,0)"><line stroke="currentColor" y2="6"></line><text fill="currentColor" y="9" dy="0.71em" class="axis-label">80%</text></g><g class="tick" opacity="1" transform="translate(623,0)"><line stroke="currentColor" y2="6"></line><text fill="currentColor" y="9" dy="0.71em" class="axis-label">100%</text></g></g><g class="bar-group" transform="translate(0,19.230769230769255)"><rect y="1.802884615384615" x="268.513" height="7.211538461538462" width="42.98700000000002" fill="#034737"></rect><rect y="10.817307692307692" x="169.45600000000002" height="7.211538461538462" width="142.04399999999998" fill="#82c091"></rect><rect y="19.831730769230766" x="311.5" height="7.211538461538462" width="37.06849999999997" fill="#FB8500"></rect><text class="value-label" x="263.513" y="5.408653846153846" dy="0.35em" text-anchor="end">-13.8%</text><text class="value-label" x="164.45600000000002" y="14.423076923076923" dy="0.35em" text-anchor="end">-45.6%</text><text class="value-label" x="353.5685" y="23.437499999999996" dy="0.35em" text-anchor="start">11.9%</text></g><g class="bar-group" transform="translate(0,67.30769230769232)"><rect y="1.802884615384615" x="192.8185" height="7.211538461538462" width="118.6815" fill="#034737"></rect><rect y="10.817307692307692" x="282.219" height="7.211538461538462" width="29.281000000000006" fill="#82c091"></rect><rect y="19.831730769230766" x="262.283" height="7.211538461538462" width="49.216999999999985" fill="#FB8500"></rect><text class="value-label" x="187.8185" y="5.408653846153846" dy="0.35em" text-anchor="end">-38.1%</text><text class="value-label" x="277.219" y="14.423076923076923" dy="0.35em" text-anchor="end">-9.4%</text><text class="value-label" x="257.283" y="23.437499999999996" dy="0.35em" text-anchor="end">-15.8%</text></g><g class="bar-group" transform="translate(0,115.3846153846154)"><rect y="1.802884615384615" x="225.52600000000004" height="7.211538461538462" width="85.97399999999996" fill="#034737"></rect><rect y="10.817307692307692" x="311.5" height="7.211538461538462" width="261.03700000000003" fill="#82c091"></rect><rect y="19.831730769230766" x="271.3165" height="7.211538461538462" width="40.18349999999998" fill="#FB8500"></rect><text class="value-label" x="220.52600000000004" y="5.408653846153846" dy="0.35em" text-anchor="end">-27.6%</text><text class="value-label" x="577.537" y="14.423076923076923" dy="0.35em" text-anchor="start">83.8%</text><text class="value-label" x="266.3165" y="23.437499999999996" dy="0.35em" text-anchor="end">-12.9%</text></g><g class="bar-group" transform="translate(0,163.46153846153848)"><rect y="1.802884615384615" x="242.6585" height="7.211538461538462" width="68.8415" fill="#034737"></rect><rect y="10.817307692307692" x="308.6965" height="7.211538461538462" width="2.8034999999999854" fill="#82c091"></rect><rect y="19.831730769230766" x="311.5" height="7.211538461538462" width="70.71050000000002" fill="#FB8500"></rect><text class="value-label" x="237.6585" y="5.408653846153846" dy="0.35em" text-anchor="end">-22.1%</text><text class="value-label" x="303.6965" y="14.423076923076923" dy="0.35em" text-anchor="end">-0.9%</text><text class="value-label" x="387.2105" y="23.437499999999996" dy="0.35em" text-anchor="start">22.7%</text></g><g class="bar-group" transform="translate(0,211.53846153846155)"><rect y="1.802884615384615" x="250.75750000000002" height="7.211538461538462" width="60.74249999999998" fill="#034737"></rect><rect y="10.817307692307692" x="209.328" height="7.211538461538462" width="102.172" fill="#82c091"></rect><rect y="19.831730769230766" x="311.5" height="7.211538461538462" width="44.54450000000003" fill="#FB8500"></rect><text class="value-label" x="245.75750000000002" y="5.408653846153846" dy="0.35em" text-anchor="end">-19.5%</text><text class="value-label" x="204.328" y="14.423076923076923" dy="0.35em" text-anchor="end">-32.8%</text><text class="value-label" x="361.0445" y="23.437499999999996" dy="0.35em" text-anchor="start">14.3%</text></g><g class="bar-group" transform="translate(0,259.61538461538464)"><rect y="1.802884615384615" x="264.152" height="7.211538461538462" width="47.34800000000001" fill="#034737"></rect><rect y="10.817307692307692" x="311.5" height="7.211538461538462" width="184.71950000000004" fill="#82c091"></rect><rect y="19.831730769230766" x="286.2685" height="7.211538461538462" width="25.231499999999983" fill="#FB8500"></rect><text class="value-label" x="259.152" y="5.408653846153846" dy="0.35em" text-anchor="end">-15.2%</text><text class="value-label" x="501.21950000000004" y="14.423076923076923" dy="0.35em" text-anchor="start">59.3%</text><text class="value-label" x="281.2685" y="23.437499999999996" dy="0.35em" text-anchor="end">-8.1%</text></g><g class="bar-group" transform="translate(0,307.69230769230774)"><rect y="1.802884615384615" x="235.1825" height="7.211538461538462" width="76.3175" fill="#034737"></rect><rect y="10.817307692307692" x="266.9555" height="7.211538461538462" width="44.54450000000003" fill="#82c091"></rect><rect y="19.831730769230766" x="311.5" height="7.211538461538462" width="16.509500000000003" fill="#FB8500"></rect><text class="value-label" x="230.1825" y="5.408653846153846" dy="0.35em" text-anchor="end">-24.5%</text><text class="value-label" x="261.9555" y="14.423076923076923" dy="0.35em" text-anchor="end">-14.3%</text><text class="value-label" x="333.0095" y="23.437499999999996" dy="0.35em" text-anchor="start">5.3%</text></g><g class="bar-group" transform="translate(0,355.7692307692307)"><rect y="1.802884615384615" x="189.0805" height="7.211538461538462" width="122.4195" fill="#034737"></rect><rect y="10.817307692307692" x="146.09349999999998" height="7.211538461538462" width="165.40650000000002" fill="#82c091"></rect><rect y="19.831730769230766" x="311.5" height="7.211538461538462" width="85.03949999999998" fill="#FB8500"></rect><text class="value-label" x="184.0805" y="5.408653846153846" dy="0.35em" text-anchor="end">-39.3%</text><text class="value-label" x="141.09349999999998" y="14.423076923076923" dy="0.35em" text-anchor="end">-53.1%</text><text class="value-label" x="401.5395" y="23.437499999999996" dy="0.35em" text-anchor="start">27.3%</text></g><g class="bar-group" transform="translate(0,403.8461538461538)"><rect y="1.802884615384615" x="283.1535" height="7.211538461538462" width="28.346499999999992" fill="#034737"></rect><rect y="10.817307692307692" x="311.5" height="7.211538461538462" width="59.80799999999999" fill="#82c091"></rect><rect y="19.831730769230766" x="311.5" height="7.211538461538462" width="74.137" fill="#FB8500"></rect><text class="value-label" x="278.1535" y="5.408653846153846" dy="0.35em" text-anchor="end">-9.1%</text><text class="value-label" x="376.308" y="14.423076923076923" dy="0.35em" text-anchor="start">19.2%</text><text class="value-label" x="390.637" y="23.437499999999996" dy="0.35em" text-anchor="start">23.8%</text></g><g class="bar-group" transform="translate(0,451.9230769230769)"><rect y="1.802884615384615" x="305.27" height="7.211538461538462" width="6.230000000000018" fill="#034737"></rect><rect y="10.817307692307692" x="311.5" height="7.211538461538462" width="140.175" fill="#82c091"></rect><rect y="19.831730769230766" x="311.5" height="7.211538461538462" width="38.9375" fill="#FB8500"></rect><text class="value-label" x="300.27" y="5.408653846153846" dy="0.35em" text-anchor="end">-2.0%</text><text class="value-label" x="456.675" y="14.423076923076923" dy="0.35em" text-anchor="start">45.0%</text><text class="value-label" x="355.4375" y="23.437499999999996" dy="0.35em" text-anchor="start">12.5%</text></g><text class="title" x="311.5" y="-20" text-anchor="middle">Software Categories: Changes 2022-2024 by Category and Metric</text><g class="legend" transform="translate(0,540)"><g class="legend-item" transform="translate(0, 0)"><rect width="15" height="15" fill="#034737"></rect><text x="20" y="12">Opportunities</text></g><g class="legend-item" transform="translate(150, 0)"><rect width="15" height="15" fill="#82c091"></rect><text x="20" y="12">Value</text></g><g class="legend-item" transform="translate(300, 0)"><rect width="15" height="15" fill="#FB8500"></rect><text x="20" y="12">Duration</text></g></g><text class="axis-label" text-anchor="middle" x="311.5" y="580">Percent Change</text></g></svg>