<svg xmlns="http://www.w3.org/2000/svg" width="823" height="411.5" viewBox="0 0 823 411.5" preserveAspectRatio="xMidYMid meet"><g transform="translate(100,20)"><g class="grid" fill="none" font-size="10" font-family="sans-serif" text-anchor="end"><path class="domain" stroke="currentColor" d="M623,341.5H0V0H623"></path><g class="tick" opacity="1" transform="translate(0,341.5)"><line stroke="currentColor" x2="623"></line><text fill="currentColor" x="-3" dy="0.32em"></text></g><g class="tick" opacity="1" transform="translate(0,313.89670896994284)"><line stroke="currentColor" x2="623"></line><text fill="currentColor" x="-3" dy="0.32em"></text></g><g class="tick" opacity="1" transform="translate(0,286.2934179398856)"><line stroke="currentColor" x2="623"></line><text fill="currentColor" x="-3" dy="0.32em"></text></g><g class="tick" opacity="1" transform="translate(0,258.69012690982845)"><line stroke="currentColor" x2="623"></line><text fill="currentColor" x="-3" dy="0.32em"></text></g><g class="tick" opacity="1" transform="translate(0,231.0868358797713)"><line stroke="currentColor" x2="623"></line><text fill="currentColor" x="-3" dy="0.32em"></text></g><g class="tick" opacity="1" transform="translate(0,203.4835448497141)"><line stroke="currentColor" x2="623"></line><text fill="currentColor" x="-3" dy="0.32em"></text></g><g class="tick" opacity="1" transform="translate(0,175.88025381965693)"><line stroke="currentColor" x2="623"></line><text fill="currentColor" x="-3" dy="0.32em"></text></g><g class="tick" opacity="1" transform="translate(0,148.27696278959976)"><line stroke="currentColor" x2="623"></line><text fill="currentColor" x="-3" dy="0.32em"></text></g><g class="tick" opacity="1" transform="translate(0,120.67367175954256)"><line stroke="currentColor" x2="623"></line><text fill="currentColor" x="-3" dy="0.32em"></text></g><g class="tick" opacity="1" transform="translate(0,93.07038072948538)"><line stroke="currentColor" x2="623"></line><text fill="currentColor" x="-3" dy="0.32em"></text></g><g class="tick" opacity="1" transform="translate(0,65.46708969942823)"><line stroke="currentColor" x2="623"></line><text fill="currentColor" x="-3" dy="0.32em"></text></g><g class="tick" opacity="1" transform="translate(0,37.863798669371036)"><line stroke="currentColor" x2="623"></line><text fill="currentColor" x="-3" dy="0.32em"></text></g><g class="tick" opacity="1" transform="translate(0,10.260507639313845)"><line stroke="currentColor" x2="623"></line><text fill="currentColor" x="-3" dy="0.32em"></text></g></g><g class="bar-group" transform="translate(26.51063829787239,0)" style="opacity: 1;"><rect class="bar" x="0" y="225.96219408521367" width="39.76595744680851" height="115.53780591478633" style="fill: rgb(3, 71, 55);"></rect><rect class="hover-area" x="-3.976595744680851" y="0" width="47.71914893617021" height="341.5" style="fill: transparent; pointer-events: all;"></rect></g><g class="bar-group" transform="translate(92.78723404255324,0)" style="opacity: 1;"><rect class="bar" x="0" y="126.48000028888482" width="39.76595744680851" height="215.0199997111152" style="fill: rgb(3, 71, 55);"></rect><rect class="hover-area" x="-3.976595744680851" y="0" width="47.71914893617021" height="341.5" style="fill: transparent; pointer-events: all;"></rect></g><g class="bar-group" transform="translate(159.06382978723408,0)" style="opacity: 1;"><rect class="bar" x="0" y="172.8721354937326" width="39.76595744680851" height="168.6278645062674" style="fill: rgb(3, 71, 55);"></rect><rect class="hover-area" x="-3.976595744680851" y="0" width="47.71914893617021" height="341.5" style="fill: transparent; pointer-events: all;"></rect></g><g class="bar-group" transform="translate(225.34042553191495,0)" style="opacity: 1;"><rect class="bar" x="0" y="31.045454545454557" width="39.76595744680851" height="310.45454545454544" style="fill: rgb(3, 71, 55);"></rect><rect class="hover-area" x="-3.976595744680851" y="0" width="47.71914893617021" height="341.5" style="fill: transparent; pointer-events: all;"></rect></g><g class="bar-group" transform="translate(291.6170212765958,0)" style="opacity: 1;"><rect class="bar" x="0" y="123.203486607255" width="39.76595744680851" height="218.296513392745" style="fill: rgb(3, 71, 55);"></rect><rect class="hover-area" x="-3.976595744680851" y="0" width="47.71914893617021" height="341.5" style="fill: transparent; pointer-events: all;"></rect></g><g class="bar-group" transform="translate(357.8936170212766,0)" style="opacity: 1;"><rect class="bar" x="0" y="147.8073433067459" width="39.76595744680851" height="193.6926566932541" style="fill: rgb(3, 71, 55);"></rect><rect class="hover-area" x="-3.976595744680851" y="0" width="47.71914893617021" height="341.5" style="fill: transparent; pointer-events: all;"></rect></g><g class="bar-group" transform="translate(424.1702127659575,0)" style="opacity: 1;"><rect class="bar" x="0" y="123.85729705446131" width="39.76595744680851" height="217.6427029455387" style="fill: rgb(3, 71, 55);"></rect><rect class="hover-area" x="-3.976595744680851" y="0" width="47.71914893617021" height="341.5" style="fill: transparent; pointer-events: all;"></rect></g><g class="bar-group" transform="translate(490.44680851063833,0)" style="opacity: 1;"><rect class="bar" x="0" y="74.60834323454895" width="39.76595744680851" height="266.89165676545105" style="fill: rgb(3, 71, 55);"></rect><rect class="hover-area" x="-3.976595744680851" y="0" width="47.71914893617021" height="341.5" style="fill: transparent; pointer-events: all;"></rect></g><g class="bar-group" transform="translate(556.7234042553191,0)" style="opacity: 1;"><rect class="bar" x="0" y="95.92722170321571" width="39.76595744680851" height="245.5727782967843" style="fill: rgb(3, 71, 55);"></rect><rect class="hover-area" x="-3.976595744680851" y="0" width="47.71914893617021" height="341.5" style="fill: transparent; pointer-events: all;"></rect></g><g class="line-group" style="opacity: 1;"><path class="line" d="M46.394,215.259C68.486,227.557,90.578,239.855,112.67,239.855C134.762,239.855,156.855,31.045,178.947,31.045C201.039,31.045,223.131,191.541,245.223,203.315C267.316,215.089,289.408,220.976,311.5,220.976C333.592,220.976,355.684,200.859,377.777,200.859C399.869,200.859,421.961,201.423,444.053,202.549C466.145,203.675,488.238,208.832,510.33,211.939C532.422,215.047,554.514,218.119,576.606,221.192" fill="none"></path><circle class="line-point" cx="46.39361702127664" cy="215.25935524325072" r="4"></circle><circle class="line-point" cx="112.67021276595749" cy="239.85526050864914" r="4"></circle><circle class="line-point" cx="178.94680851063833" cy="31.045454545454593" r="4"></circle><circle class="line-point" cx="245.2234042553192" cy="203.315017861971" r="4"></circle><circle class="line-point" cx="311.50000000000006" cy="220.97613514119877" r="4"></circle><circle class="line-point" cx="377.7765957446809" cy="200.85935639378025" r="4"></circle><circle class="line-point" cx="444.0531914893618" cy="202.54885148389548" r="4"></circle><circle class="line-point" cx="510.3297872340426" cy="211.93930093825688" r="4"></circle><circle class="line-point" cx="576.6063829787233" cy="221.19223335039953" r="4"></circle></g><g class="axis" transform="translate(0,341.5)" fill="none" font-size="10" font-family="sans-serif" text-anchor="middle"><path class="domain" stroke="currentColor" d="M0,6V0H623V6"></path><g class="tick" opacity="1" transform="translate(46.39361702127664,0)"><line stroke="currentColor" y2="6"></line><text fill="currentColor" y="9" dy="1em" dx="0" style="text-anchor: middle;">Q1 2022</text></g><g class="tick" opacity="1" transform="translate(112.67021276595749,0)"><line stroke="currentColor" y2="6"></line><text fill="currentColor" y="9" dy="1em" dx="0" style="text-anchor: middle;">Q2 2022</text></g><g class="tick" opacity="1" transform="translate(178.94680851063833,0)"><line stroke="currentColor" y2="6"></line><text fill="currentColor" y="9" dy="1em" dx="0" style="text-anchor: middle;">Q3 2022</text></g><g class="tick" opacity="1" transform="translate(245.2234042553192,0)"><line stroke="currentColor" y2="6"></line><text fill="currentColor" y="9" dy="1em" dx="0" style="text-anchor: middle;">Q4 2022</text></g><g class="tick" opacity="1" transform="translate(311.50000000000006,0)"><line stroke="currentColor" y2="6"></line><text fill="currentColor" y="9" dy="1em" dx="0" style="text-anchor: middle;">Q1 2023</text></g><g class="tick" opacity="1" transform="translate(377.7765957446809,0)"><line stroke="currentColor" y2="6"></line><text fill="currentColor" y="9" dy="1em" dx="0" style="text-anchor: middle;">Q2 2023</text></g><g class="tick" opacity="1" transform="translate(444.0531914893618,0)"><line stroke="currentColor" y2="6"></line><text fill="currentColor" y="9" dy="1em" dx="0" style="text-anchor: middle;">Q3 2023</text></g><g class="tick" opacity="1" transform="translate(510.3297872340426,0)"><line stroke="currentColor" y2="6"></line><text fill="currentColor" y="9" dy="1em" dx="0" style="text-anchor: middle;">Q4 2023</text></g><g class="tick" opacity="1" transform="translate(576.6063829787233,0)"><line stroke="currentColor" y2="6"></line><text fill="currentColor" y="9" dy="1em" dx="0" style="text-anchor: middle;">Q1 2024</text></g></g><g class="axis" fill="none" font-size="10" font-family="sans-serif" text-anchor="end"><path class="domain" stroke="currentColor" d="M-6,341.5H0V0H-6"></path><g class="tick" opacity="1" transform="translate(0,341.5)"><line stroke="currentColor" x2="-6"></line><text fill="currentColor" x="-9" dy="0.32em">$0.0B</text></g><g class="tick" opacity="1" transform="translate(0,286.2934179398856)"><line stroke="currentColor" x2="-6"></line><text fill="currentColor" x="-9" dy="0.32em">$0.2B</text></g><g class="tick" opacity="1" transform="translate(0,231.0868358797713)"><line stroke="currentColor" x2="-6"></line><text fill="currentColor" x="-9" dy="0.32em">$0.4B</text></g><g class="tick" opacity="1" transform="translate(0,175.88025381965693)"><line stroke="currentColor" x2="-6"></line><text fill="currentColor" x="-9" dy="0.32em">$0.6B</text></g><g class="tick" opacity="1" transform="translate(0,120.67367175954256)"><line stroke="currentColor" x2="-6"></line><text fill="currentColor" x="-9" dy="0.32em">$0.8B</text></g><g class="tick" opacity="1" transform="translate(0,65.46708969942823)"><line stroke="currentColor" x2="-6"></line><text fill="currentColor" x="-9" dy="0.32em">$1.0B</text></g><g class="tick" opacity="1" transform="translate(0,10.260507639313845)"><line stroke="currentColor" x2="-6"></line><text fill="currentColor" x="-9" dy="0.32em">$1.2B</text></g></g><g class="axis y-axis-line" transform="translate(623,0)" fill="none" font-size="10" font-family="sans-serif" text-anchor="start"><path class="domain" stroke="currentColor" d="M6,341.5H0V0H6"></path><g class="tick" opacity="1" transform="translate(0,341.5)"><line stroke="currentColor" x2="6"></line><text fill="currentColor" x="9" dy="0.32em">0</text></g><g class="tick" opacity="1" transform="translate(0,243.27354127237064)"><line stroke="currentColor" x2="6"></line><text fill="currentColor" x="9" dy="0.32em">5,000</text></g><g class="tick" opacity="1" transform="translate(0,145.04708254474124)"><line stroke="currentColor" x2="6"></line><text fill="currentColor" x="9" dy="0.32em">10,000</text></g><g class="tick" opacity="1" transform="translate(0,46.82062381711188)"><line stroke="currentColor" x2="6"></line><text fill="currentColor" x="9" dy="0.32em">15,000</text></g></g></g><text class="axis-label" transform="rotate(-90)" y="33.333333333333336" x="-205.75" dy=".71em" style="text-anchor: middle;">Value (USD)</text><text class="axis-label" transform="rotate(-90)" y="789.6666666666666" x="-205.75" dy=".71em" style="text-anchor: middle;">Number of Opportunities</text></svg>