<svg xmlns="http://www.w3.org/2000/svg" width="823" height="493.79999999999995" viewBox="0 0 823 493.79999999999995" preserveAspectRatio="xMidYMid meet"><g transform="translate(60,40)"><g class="grid" opacity="0.1" fill="none" font-size="10" font-family="sans-serif" text-anchor="end"><path class="domain" stroke="currentColor" d="M723,353.79999999999995H0V0H723"></path><g class="tick" opacity="1" transform="translate(0,353.79999999999995)"><line stroke="currentColor" x2="723"></line><text fill="currentColor" x="-3" dy="0.32em"></text></g><g class="tick" opacity="1" transform="translate(0,312.47980939923383)"><line stroke="currentColor" x2="723"></line><text fill="currentColor" x="-3" dy="0.32em"></text></g><g class="tick" opacity="1" transform="translate(0,271.1596187984677)"><line stroke="currentColor" x2="723"></line><text fill="currentColor" x="-3" dy="0.32em"></text></g><g class="tick" opacity="1" transform="translate(0,229.8394281977016)"><line stroke="currentColor" x2="723"></line><text fill="currentColor" x="-3" dy="0.32em"></text></g><g class="tick" opacity="1" transform="translate(0,188.51923759693543)"><line stroke="currentColor" x2="723"></line><text fill="currentColor" x="-3" dy="0.32em"></text></g><g class="tick" opacity="1" transform="translate(0,147.19904699616933)"><line stroke="currentColor" x2="723"></line><text fill="currentColor" x="-3" dy="0.32em"></text></g><g class="tick" opacity="1" transform="translate(0,105.8788563954032)"><line stroke="currentColor" x2="723"></line><text fill="currentColor" x="-3" dy="0.32em"></text></g><g class="tick" opacity="1" transform="translate(0,64.55866579463707)"><line stroke="currentColor" x2="723"></line><text fill="currentColor" x="-3" dy="0.32em"></text></g><g class="tick" opacity="1" transform="translate(0,23.238475193870933)"><line stroke="currentColor" x2="723"></line><text fill="currentColor" x="-3" dy="0.32em"></text></g></g><g class="series-group-infrastructure" style="opacity: 1;"><path class="data-series" fill="none" stroke="#034737" stroke-width="2" d="M43.38,264.383C62.66,262.221,81.94,260.058,101.22,251.409C120.5,242.759,139.78,110.424,159.06,110.424C178.34,110.424,197.62,202.596,216.9,223.807C236.18,245.018,255.46,255.623,274.74,255.623C294.02,255.623,313.3,227.856,332.58,227.856C351.86,227.856,371.14,228.132,390.42,228.682C409.7,229.233,428.98,242.153,448.26,243.31C467.54,244.467,486.82,243.888,506.1,245.045C525.38,246.202,544.66,290.828,563.94,290.828C583.22,290.828,602.5,197.114,621.78,197.114C641.06,197.114,660.34,214.51,679.62,231.905"></path><circle class="data-point" cx="43.37999999999996" cy="264.38310753994205" r="5" fill="#034737"></circle><circle class="data-point" cx="101.21999999999997" cy="251.4085676913015" r="5" fill="#034737"></circle><circle class="data-point" cx="159.05999999999997" cy="110.42407736148745" r="5" fill="#034737"></circle><circle class="data-point" cx="216.89999999999998" cy="223.8066803699897" r="5" fill="#034737"></circle><circle class="data-point" cx="274.73999999999995" cy="255.62322713257961" r="5" fill="#034737"></circle><circle class="data-point" cx="332.58" cy="227.8560590488648" r="5" fill="#034737"></circle><circle class="data-point" cx="390.41999999999996" cy="228.68246286088012" r="5" fill="#034737"></circle><circle class="data-point" cx="448.25999999999993" cy="243.30981033355133" r="5" fill="#034737"></circle><circle class="data-point" cx="506.09999999999997" cy="245.0452583387835" r="5" fill="#034737"></circle><circle class="data-point" cx="563.94" cy="290.8280295244324" r="5" fill="#034737"></circle><circle class="data-point" cx="621.7800000000001" cy="197.1138372418948" r="5" fill="#034737"></circle><circle class="data-point" cx="679.62" cy="231.9054377277399" r="5" fill="#034737"></circle><path class="trendline" fill="none" stroke="#034737" stroke-width="2" d="M43.38,221.5C62.66,222.068,81.94,222.635,101.22,223.203C120.5,223.771,139.78,224.338,159.06,224.906C178.34,225.473,197.62,226.041,216.9,226.609C236.18,227.176,255.46,227.744,274.74,228.311C294.02,228.879,313.3,229.447,332.58,230.014C351.86,230.582,371.14,231.149,390.42,231.717C409.7,232.285,428.98,232.852,448.26,233.42C467.54,233.987,486.82,234.555,506.1,235.123C525.38,235.69,544.66,236.258,563.94,236.825C583.22,237.393,602.5,237.961,621.78,238.528C641.06,239.096,660.34,240.231,679.62,240.231CNaN,NaN,NaN,NaN,NaN,241.934CNaN,NaN,NaN,NaN,NaN,243.637CNaN,NaN,NaN,NaN,NaN,245.339CNaN,NaN,NaN,NaN,NaN,247.042"></path></g><g class="series-group-communication" style="opacity: 1;"><path class="data-series" fill="none" stroke="#0D6986" stroke-width="2" d="M43.38,200.502C62.66,207.32,81.94,214.138,101.22,214.138C120.5,214.138,139.78,32.164,159.06,32.164C178.34,32.164,197.62,126.071,216.9,153.232C236.18,180.393,255.46,195.13,274.74,195.13C294.02,195.13,313.3,160.752,332.58,160.256C351.86,159.76,371.14,159.512,390.42,159.512C409.7,159.512,428.98,173.864,448.26,181.495C467.54,189.125,486.82,197.706,506.1,205.295C525.38,212.884,544.66,227.03,563.94,227.03C583.22,227.03,602.5,172.074,621.78,172.074C641.06,172.074,660.34,182.569,679.62,193.064"></path><circle class="data-point" cx="43.37999999999996" cy="200.50209287115763" r="5" fill="#0D6986"></circle><circle class="data-point" cx="101.21999999999997" cy="214.13775576941043" r="5" fill="#0D6986"></circle><circle class="data-point" cx="159.05999999999997" cy="32.16363636363641" r="5" fill="#0D6986"></circle><circle class="data-point" cx="216.89999999999998" cy="153.2317948238812" r="5" fill="#0D6986"></circle><circle class="data-point" cx="274.73999999999995" cy="195.130468093058" r="5" fill="#0D6986"></circle><circle class="data-point" cx="332.58" cy="160.2562272260114" r="5" fill="#0D6986"></circle><circle class="data-point" cx="390.41999999999996" cy="159.51246379519765" r="5" fill="#0D6986"></circle><circle class="data-point" cx="448.25999999999993" cy="181.49480519480522" r="5" fill="#0D6986"></circle><circle class="data-point" cx="506.09999999999997" cy="205.2952349808465" r="5" fill="#0D6986"></circle><circle class="data-point" cx="563.94" cy="227.02965523684946" r="5" fill="#0D6986"></circle><circle class="data-point" cx="621.7800000000001" cy="172.07380173783054" r="5" fill="#0D6986"></circle><circle class="data-point" cx="679.62" cy="193.0644585630197" r="5" fill="#0D6986"></circle><path class="trendline" fill="none" stroke="#0D6986" stroke-width="2" d="M43.38,152.908C62.66,154.216,81.94,155.524,101.22,156.832C120.5,158.14,139.78,159.448,159.06,160.756C178.34,162.064,197.62,163.372,216.9,164.68C236.18,165.988,255.46,167.297,274.74,168.605C294.02,169.913,313.3,171.221,332.58,172.529C351.86,173.837,371.14,175.145,390.42,176.453C409.7,177.761,428.98,179.069,448.26,180.377C467.54,181.686,486.82,182.994,506.1,184.302C525.38,185.61,544.66,186.918,563.94,188.226C583.22,189.534,602.5,190.842,621.78,192.15C641.06,193.458,660.34,196.074,679.62,196.074CNaN,NaN,NaN,NaN,NaN,199.999CNaN,NaN,NaN,NaN,NaN,203.923CNaN,NaN,NaN,NaN,NaN,207.847CNaN,NaN,NaN,NaN,NaN,211.772"></path></g><g class="series-group-analytics" style="opacity: 1;"><path class="data-series" fill="none" stroke="#219EBC" stroke-width="2" d="M43.38,229.096C62.66,238.103,81.94,247.111,101.22,247.111C120.5,247.111,139.78,158.108,159.06,158.108C178.34,158.108,197.62,226.864,216.9,236.781C236.18,246.698,255.46,251.656,274.74,251.656C294.02,251.656,313.3,233.889,332.58,233.889C351.86,233.889,371.14,249.439,390.42,253.97C409.7,258.502,428.98,261.077,448.26,261.077C467.54,261.077,486.82,239.178,506.1,239.178C525.38,239.178,544.66,281.903,563.94,281.903C583.22,281.903,602.5,210.502,621.78,210.502C641.06,210.502,660.34,224.013,679.62,237.525"></path><circle class="data-point" cx="43.37999999999996" cy="229.09566476688775" r="5" fill="#219EBC"></circle><circle class="data-point" cx="101.21999999999997" cy="247.1112678688218" r="5" fill="#219EBC"></circle><circle class="data-point" cx="159.05999999999997" cy="158.10757731477156" r="5" fill="#219EBC"></circle><circle class="data-point" cx="216.89999999999998" cy="236.78122021863027" r="5" fill="#219EBC"></circle><circle class="data-point" cx="274.73999999999995" cy="251.65648883490607" r="5" fill="#219EBC"></circle><circle class="data-point" cx="332.58" cy="233.88880687657664" r="5" fill="#219EBC"></circle><circle class="data-point" cx="390.41999999999996" cy="253.970419508549" r="5" fill="#219EBC"></circle><circle class="data-point" cx="448.25999999999993" cy="261.0774922918808" r="5" fill="#219EBC"></circle><circle class="data-point" cx="506.09999999999997" cy="239.17779127347475" r="5" fill="#219EBC"></circle><circle class="data-point" cx="563.94" cy="281.9028683546669" r="5" fill="#219EBC"></circle><circle class="data-point" cx="621.7800000000001" cy="210.50157899654303" r="5" fill="#219EBC"></circle><circle class="data-point" cx="679.62" cy="237.52498364944407" r="5" fill="#219EBC"></circle><path class="trendline" fill="none" stroke="#219EBC" stroke-width="2" d="M43.38,223.461C62.66,224.266,81.94,225.07,101.22,225.874C120.5,226.679,139.78,227.483,159.06,228.287C178.34,229.092,197.62,229.896,216.9,230.7C236.18,231.505,255.46,232.309,274.74,233.113C294.02,233.918,313.3,234.722,332.58,235.526C351.86,236.331,371.14,237.135,390.42,237.94C409.7,238.744,428.98,239.548,448.26,240.353C467.54,241.157,486.82,241.961,506.1,242.766C525.38,243.57,544.66,244.374,563.94,245.179C583.22,245.983,602.5,246.787,621.78,247.592C641.06,248.396,660.34,250.005,679.62,250.005CNaN,NaN,NaN,NaN,NaN,252.418CNaN,NaN,NaN,NaN,NaN,254.831CNaN,NaN,NaN,NaN,NaN,257.244CNaN,NaN,NaN,NaN,NaN,259.657"></path></g><g class="series-group-security" style="opacity: 1;"><path class="data-series" fill="none" stroke="#FFB703" stroke-width="2" d="M43.38,326.363C62.66,325.523,81.94,324.683,101.22,321.322C120.5,317.962,139.78,293.142,159.06,293.142C178.34,293.142,197.62,294.905,216.9,298.431C236.18,301.957,255.46,317.108,274.74,317.108C294.02,317.108,313.3,310.662,332.58,310.662C351.86,310.662,371.14,311.323,390.42,311.323C409.7,311.323,428.98,290.084,448.26,290.084C467.54,290.084,486.82,307.246,506.1,312.562C525.38,317.879,544.66,321.983,563.94,321.983C583.22,321.983,602.5,301.571,621.78,301.571C641.06,301.571,660.34,308.141,679.62,314.711"></path><circle class="data-point" cx="43.37999999999996" cy="326.36339344109126" r="5" fill="#FFB703"></circle><circle class="data-point" cx="101.21999999999997" cy="321.3223301877978" r="5" fill="#FFB703"></circle><circle class="data-point" cx="159.05999999999997" cy="293.14196019807525" r="5" fill="#FFB703"></circle><circle class="data-point" cx="216.89999999999998" cy="298.43094459497337" r="5" fill="#FFB703"></circle><circle class="data-point" cx="274.73999999999995" cy="317.10767074651966" r="5" fill="#FFB703"></circle><circle class="data-point" cx="332.58" cy="310.6617210128001" r="5" fill="#FFB703"></circle><circle class="data-point" cx="390.41999999999996" cy="311.3228440624124" r="5" fill="#FFB703"></circle><circle class="data-point" cx="448.25999999999993" cy="290.08426609361857" r="5" fill="#FFB703"></circle><circle class="data-point" cx="506.09999999999997" cy="312.5624497804354" r="5" fill="#FFB703"></circle><circle class="data-point" cx="563.94" cy="321.98345323741" r="5" fill="#FFB703"></circle><circle class="data-point" cx="621.7800000000001" cy="301.57127908063154" r="5" fill="#FFB703"></circle><circle class="data-point" cx="679.62" cy="314.7110996916752" r="5" fill="#FFB703"></circle><path class="trendline" fill="none" stroke="#FFB703" stroke-width="2" d="M43.38,312.127C62.66,311.994,81.94,311.862,101.22,311.729C120.5,311.596,139.78,311.464,159.06,311.331C178.34,311.199,197.62,311.066,216.9,310.933C236.18,310.801,255.46,310.668,274.74,310.535C294.02,310.403,313.3,310.27,332.58,310.138C351.86,310.005,371.14,309.872,390.42,309.74C409.7,309.607,428.98,309.474,448.26,309.342C467.54,309.209,486.82,309.077,506.1,308.944C525.38,308.811,544.66,308.679,563.94,308.546C583.22,308.413,602.5,308.281,621.78,308.148C641.06,308.015,660.34,307.75,679.62,307.75CNaN,NaN,NaN,NaN,NaN,307.352CNaN,NaN,NaN,NaN,NaN,306.954CNaN,NaN,NaN,NaN,NaN,306.557CNaN,NaN,NaN,NaN,NaN,306.159"></path></g><g class="series-group-productivity" style="opacity: 1;"><path class="data-series" fill="none" stroke="#FB8500" stroke-width="2" d="M43.38,231.079C62.66,241.45,81.94,251.822,101.22,251.822C120.5,251.822,139.78,138.274,159.06,138.274C178.34,138.274,197.62,205.874,216.9,225.212C236.18,244.549,255.46,254.301,274.74,254.301C294.02,254.301,313.3,238.434,332.58,238.434C351.86,238.434,371.14,243.654,390.42,246.781C409.7,249.907,428.98,254.756,448.26,257.193C467.54,259.631,486.82,259.383,506.1,261.408C525.38,263.433,544.66,269.342,563.94,269.342C583.22,269.342,602.5,227.36,621.78,227.36C641.06,227.36,660.34,240.128,679.62,252.896"></path><circle class="data-point" cx="43.37999999999996" cy="231.07903391572455" r="5" fill="#FB8500"></circle><circle class="data-point" cx="101.21999999999997" cy="251.82176959730913" r="5" fill="#FB8500"></circle><circle class="data-point" cx="159.05999999999997" cy="138.2738858264038" r="5" fill="#FB8500"></circle><circle class="data-point" cx="216.89999999999998" cy="225.21156685041578" r="5" fill="#FB8500"></circle><circle class="data-point" cx="274.73999999999995" cy="254.30098103335513" r="5" fill="#FB8500"></circle><circle class="data-point" cx="332.58" cy="238.4340278426609" r="5" fill="#FB8500"></circle><circle class="data-point" cx="390.41999999999996" cy="246.7807063440157" r="5" fill="#FB8500"></circle><circle class="data-point" cx="448.25999999999993" cy="257.1933943754088" r="5" fill="#FB8500"></circle><circle class="data-point" cx="506.09999999999997" cy="261.4080538166869" r="5" fill="#FB8500"></circle><circle class="data-point" cx="563.94" cy="269.341530412034" r="5" fill="#FB8500"></circle><circle class="data-point" cx="621.7800000000001" cy="227.3602167616556" r="5" fill="#FB8500"></circle><circle class="data-point" cx="679.62" cy="252.89609455292907" r="5" fill="#FB8500"></circle><path class="trendline" fill="none" stroke="#FB8500" stroke-width="2" d="M43.38,216.009C62.66,217.332,81.94,218.655,101.22,219.978C120.5,221.302,139.78,222.625,159.06,223.948C178.34,225.271,197.62,226.594,216.9,227.918C236.18,229.241,255.46,230.564,274.74,231.887C294.02,233.211,313.3,234.534,332.58,235.857C351.86,237.18,371.14,238.503,390.42,239.827C409.7,241.15,428.98,242.473,448.26,243.796C467.54,245.119,486.82,246.443,506.1,247.766C525.38,249.089,544.66,250.412,563.94,251.735C583.22,253.059,602.5,254.382,621.78,255.705C641.06,257.028,660.34,259.675,679.62,259.675CNaN,NaN,NaN,NaN,NaN,263.644CNaN,NaN,NaN,NaN,NaN,267.614CNaN,NaN,NaN,NaN,NaN,271.584CNaN,NaN,NaN,NaN,NaN,275.553"></path></g><g class="axis" transform="translate(0,353.79999999999995)" fill="none" font-size="10" font-family="sans-serif" text-anchor="middle"><path class="domain" stroke="currentColor" d="M0,6V0H723V6"></path><g class="tick" opacity="1" transform="translate(43.37999999999996,0)"><line stroke="currentColor" y2="6"></line><text fill="currentColor" y="9" dy="0.71em" style="text-anchor: middle;">Q1 2022</text></g><g class="tick" opacity="1" transform="translate(101.21999999999997,0)"><line stroke="currentColor" y2="6"></line><text fill="currentColor" y="9" dy="0.71em" style="text-anchor: middle;">Q2 2022</text></g><g class="tick" opacity="1" transform="translate(159.05999999999997,0)"><line stroke="currentColor" y2="6"></line><text fill="currentColor" y="9" dy="0.71em" style="text-anchor: middle;">Q3 2022</text></g><g class="tick" opacity="1" transform="translate(216.89999999999998,0)"><line stroke="currentColor" y2="6"></line><text fill="currentColor" y="9" dy="0.71em" style="text-anchor: middle;">Q4 2022</text></g><g class="tick" opacity="1" transform="translate(274.73999999999995,0)"><line stroke="currentColor" y2="6"></line><text fill="currentColor" y="9" dy="0.71em" style="text-anchor: middle;">Q1 2023</text></g><g class="tick" opacity="1" transform="translate(332.58,0)"><line stroke="currentColor" y2="6"></line><text fill="currentColor" y="9" dy="0.71em" style="text-anchor: middle;">Q2 2023</text></g><g class="tick" opacity="1" transform="translate(390.41999999999996,0)"><line stroke="currentColor" y2="6"></line><text fill="currentColor" y="9" dy="0.71em" style="text-anchor: middle;">Q3 2023</text></g><g class="tick" opacity="1" transform="translate(448.25999999999993,0)"><line stroke="currentColor" y2="6"></line><text fill="currentColor" y="9" dy="0.71em" style="text-anchor: middle;">Q4 2023</text></g><g class="tick" opacity="1" transform="translate(506.09999999999997,0)"><line stroke="currentColor" y2="6"></line><text fill="currentColor" y="9" dy="0.71em" style="text-anchor: middle;">Q1 2024</text></g><g class="tick" opacity="1" transform="translate(563.94,0)"><line stroke="currentColor" y2="6"></line><text fill="currentColor" y="9" dy="0.71em" style="text-anchor: middle;">Q2 2024</text></g><g class="tick" opacity="1" transform="translate(621.7800000000001,0)"><line stroke="currentColor" y2="6"></line><text fill="currentColor" y="9" dy="0.71em" style="text-anchor: middle;">Q3 2024</text></g><g class="tick" opacity="1" transform="translate(679.62,0)"><line stroke="currentColor" y2="6"></line><text fill="currentColor" y="9" dy="0.71em" style="text-anchor: middle;">Q4 2024</text></g></g><g class="axis" fill="none" font-size="10" font-family="sans-serif" text-anchor="end"><path class="domain" stroke="currentColor" d="M-6,353.79999999999995H0V0H-6"></path><g class="tick" opacity="1" transform="translate(0,353.79999999999995)"><line stroke="currentColor" x2="-6"></line><text fill="currentColor" x="-9" dy="0.32em">0</text></g><g class="tick" opacity="1" transform="translate(0,271.1596187984677)"><line stroke="currentColor" x2="-6"></line><text fill="currentColor" x="-9" dy="0.32em">1,000</text></g><g class="tick" opacity="1" transform="translate(0,188.51923759693543)"><line stroke="currentColor" x2="-6"></line><text fill="currentColor" x="-9" dy="0.32em">2,000</text></g><g class="tick" opacity="1" transform="translate(0,105.8788563954032)"><line stroke="currentColor" x2="-6"></line><text fill="currentColor" x="-9" dy="0.32em">3,000</text></g><g class="tick" opacity="1" transform="translate(0,23.238475193870933)"><line stroke="currentColor" x2="-6"></line><text fill="currentColor" x="-9" dy="0.32em">4,000</text></g></g></g><g transform="translate(60,413.79999999999995)"><g class="legend-item" transform="translate(0,0)"><rect width="15" height="15" style="fill: rgb(3, 71, 55);"></rect><text x="25" y="12">Infrastructure</text></g><g class="legend-item" transform="translate(200,0)"><rect width="15" height="15" style="fill: rgb(13, 105, 134);"></rect><text x="25" y="12">Communication</text></g><g class="legend-item" transform="translate(400,0)"><rect width="15" height="15" style="fill: rgb(33, 158, 188);"></rect><text x="25" y="12">Analytics</text></g><g class="legend-item" transform="translate(0,25)"><rect width="15" height="15" style="fill: rgb(255, 183, 3);"></rect><text x="25" y="12">Security</text></g><g class="legend-item" transform="translate(200,25)"><rect width="15" height="15" style="fill: rgb(251, 133, 0);"></rect><text x="25" y="12">Productivity</text></g></g></svg>